<?xml version="1.0" encoding="utf-8"?>
<!-- Generator: Adobe Illustrator 22.1.0, SVG Export Plug-In . SVG Version: 6.00 Build 0)  -->
<svg version="1.1" id="Layer_1" xmlns="http://www.w3.org/2000/svg" xmlns:xlink="http://www.w3.org/1999/xlink" x="0px" y="0px"
	 viewBox="0 0 43.6 33.7" style="enable-background:new 0 0 43.6 33.7;" xml:space="preserve">
<style type="text/css">
	.st0{fill:none;}
</style>
<g>
	<path class="st0" d="M27.5,15.5c4.3,2.2,6.2,5.1,6.2,8.8c0,5-4.1,9.5-12,9.5c-7.8,0-11.8-4.4-11.8-9.3c0-3.7,2.3-6.4,5.9-8
		c-3.3-2.1-4.6-3.9-4.6-7.5c0-5.5,4.6-8.9,10.7-8.9c6.3,0,10.6,3.3,10.6,8.5C32.5,11.5,30.9,13.5,27.5,15.5z M20.3,18.3
		c-1.9,1.2-3.1,3.1-3.1,5.6c0,2.7,1.5,4.5,4.6,4.5c3.2,0,4.5-2,4.5-4.3C26.4,21,24.6,19.9,20.3,18.3z M22.8,13.7
		c2.1-1.5,2.7-3,2.7-4.8c0-2.3-1.2-3.9-3.7-3.9c-2.4,0-3.8,1.3-3.8,3.9C18.1,11.2,19.6,12.5,22.8,13.7z"/>
</g>
</svg>
