<?xml version="1.0" encoding="utf-8"?>
<!-- Generator: Adobe Illustrator 22.1.0, SVG Export Plug-In . SVG Version: 6.00 Build 0)  -->
<svg version="1.1" id="Layer_1" xmlns="http://www.w3.org/2000/svg" xmlns:xlink="http://www.w3.org/1999/xlink" x="0px" y="0px"
	 viewBox="0 0 43.6 33.7" style="enable-background:new 0 0 43.6 33.7;" xml:space="preserve">
<style type="text/css">
	.st0{fill:none;}
</style>
<g>
	<path class="st0" d="M33.5,22c0,6.4-4.4,11.7-11.4,11.7c-8.5,0-12-7-12-15.3C10.1,7.6,15.4,0,24.1,0c2.8,0,5.1,0.8,6.9,2.1
		l-2.8,4.4c-1.3-0.9-2.7-1.3-4.1-1.3c-3.4,0-6,3.2-6.4,9.1c1.9-1.9,4.4-2.9,6.7-2.9C29.5,11.4,33.5,15.2,33.5,22z M26.2,22.5
		c0-4.4-1.3-6-3.6-6c-1.7,0-3.5,0.9-4.8,2.5c0.1,6.4,1.1,9.5,4.4,9.5C24.9,28.5,26.2,25.8,26.2,22.5z"/>
</g>
</svg>
