<?xml version="1.0" encoding="utf-8"?>
<!-- Generator: Adobe Illustrator 22.1.0, SVG Export Plug-In . SVG Version: 6.00 Build 0)  -->
<svg version="1.1" id="Layer_1" xmlns="http://www.w3.org/2000/svg" xmlns:xlink="http://www.w3.org/1999/xlink" x="0px" y="0px"
	 viewBox="0 0 43.6 33.7" style="enable-background:new 0 0 43.6 33.7;" xml:space="preserve">
<style type="text/css">
	.st0{fill:none;}
</style>
<g>
	<path class="st0" d="M31.6,5.4h-12v7.1c1.6-0.8,3.4-1.1,4.8-1.1c5.1,0,9.3,4,9.3,10.7c0,6.7-5.2,11.6-12.9,11.6
		c-4.7,0-8.5-1.9-10.9-4.9l4.3-3.9c1.6,2,3.7,3.1,6,3.1c3.5,0,5.7-2.3,5.7-5.7c0-4.1-1.8-5.7-4.5-5.7c-1.2,0-2.6,0.3-4,1.1h-5.1V0
		h20L31.6,5.4z"/>
</g>
</svg>
