<?xml version="1.0" encoding="utf-8"?>
<!-- Generator: Adobe Illustrator 22.1.0, SVG Export Plug-In . SVG Version: 6.00 Build 0)  -->
<svg version="1.1" id="Layer_1" xmlns="http://www.w3.org/2000/svg" xmlns:xlink="http://www.w3.org/1999/xlink" x="0px" y="0px"
	 viewBox="0 0 43.6 33.7" style="enable-background:new 0 0 43.6 33.7;" xml:space="preserve">
<style type="text/css">
	.st0{fill:none;}
</style>
<g>
	<path class="st0" d="M26.2,31c5,0.8,7.7,2.6,9.5,7.7l-6.2,2.1c-2-4.8-4.1-7.3-9.7-7.3c-8,0-11.9-6.3-11.9-16.7C7.9,6.7,12,0,20.4,0
		s12.5,6.4,12.5,16.8C32.9,23.1,31.3,28.4,26.2,31z M20.4,5.6c-3.6,0-4.7,3.5-4.7,11.2c0,7.8,1.1,11.3,4.7,11.3
		c3.7,0,4.7-3.5,4.7-11.3C25.1,9,24.1,5.6,20.4,5.6z"/>
</g>
</svg>
