<?xml version="1.0" encoding="utf-8"?>
<!-- Generator: Adobe Illustrator 22.1.0, SVG Export Plug-In . SVG Version: 6.00 Build 0)  -->
<svg version="1.1" id="Layer_1" xmlns="http://www.w3.org/2000/svg" xmlns:xlink="http://www.w3.org/1999/xlink" x="0px" y="0px"
	 viewBox="0 0 43.6 33.7" style="enable-background:new 0 0 43.6 33.7;" xml:space="preserve">
<style type="text/css">
	.st0{fill:none;}
</style>
<g>
	<path class="st0" d="M33.3,12.6c0,12.1-6,18.3-19.2,21.1l-1.5-5.1c7.5-1.9,11.6-4.8,13-9.8c-1.9,1.6-3.8,2.6-6.4,2.6
		c-5,0-8.9-4-8.9-10.1C10.3,4.5,15.2,0,21.7,0C29.4,0,33.3,5.1,33.3,12.6z M21.4,16.4c1.7,0,3.1-0.6,4.5-1.8c0-6.4-0.6-9.5-4.2-9.5
		c-2.6,0-4.2,1.9-4.2,6C17.5,15,19.2,16.4,21.4,16.4z"/>
</g>
</svg>
