<?xml version="1.0" encoding="utf-8"?>
<!-- Generator: Adobe Illustrator 22.1.0, SVG Export Plug-In . SVG Version: 6.00 Build 0)  -->
<svg version="1.1" id="Layer_1" xmlns="http://www.w3.org/2000/svg" xmlns:xlink="http://www.w3.org/1999/xlink" x="0px" y="0px"
	 viewBox="0 0 43.6 33.7" style="enable-background:new 0 0 43.6 33.7;" xml:space="preserve">
<style type="text/css">
	.st0{fill:none;}
</style>
<g>
	<path class="st0" d="M32.6,8.2c0,4.1-2.6,6.5-6.6,7.7c4.4,0.6,7.6,2.8,7.6,8c0,5.4-4.7,9.8-12.4,9.8c-4.8,0-8.6-1.8-11.3-4.8
		l4.1-3.8c1.9,2.1,4.2,3.1,6.7,3.1c3.2,0,5.4-1.7,5.4-4.7c0-3.4-2-4.8-5.4-4.8h-2.9l0.8-5h2c2.9,0,4.9-1.4,4.9-4.2
		c0-2.4-1.9-3.9-4.7-3.9c-2.5,0-4.6,1.1-6.4,2.8l-3.8-3.9c2.9-2.8,6.6-4.4,11-4.4C28.6,0,32.6,3.7,32.6,8.2z"/>
</g>
</svg>
