<?xml version="1.0" encoding="utf-8"?>
<!-- Generator: Adobe Illustrator 22.1.0, SVG Export Plug-In . SVG Version: 6.00 Build 0)  -->
<svg version="1.1" id="Layer_1" xmlns="http://www.w3.org/2000/svg" xmlns:xlink="http://www.w3.org/1999/xlink" x="0px" y="0px"
	 viewBox="0 0 43.6 33.7" style="enable-background:new 0 0 43.6 33.7;" xml:space="preserve">
<style type="text/css">
	.st0{fill:none;}
</style>
<g>
	<path class="st0" d="M19.7,27.4v5.6h-18v-5.6h6.7V8l-5.7,4.2L0,7.1l8.9-6.3h5.6v26.5H19.7z"/>
	<path class="st0" d="M43.6,16.8c0,10.6-3.4,16.9-10,16.9s-10-6.3-10-16.9C23.6,6.2,27,0,33.6,0S43.6,6.2,43.6,16.8z M29.5,16.8
		c0,2.7,0.1,4.9,0.2,6.5l6.7-16.4c-0.6-1.2-1.6-1.6-2.9-1.6C30.8,5.3,29.5,8.5,29.5,16.8z M37.7,16.8c0-1.7,0-3.2-0.1-4.5l-6.3,15.2
		c0.6,0.6,1.4,0.9,2.4,0.9C36.4,28.4,37.7,25.4,37.7,16.8z"/>
</g>
</svg>
